
<svg width="484" height="252" viewBox="0 0 484 252" fill="none" xmlns="http://www.w3.org/2000/svg">
<path d="M119.196 186.117H116.322V167.803C115.63 168.463 114.72 169.123 113.592 169.783C112.474 170.443 111.468 170.938 110.574 171.268V168.49C112.181 167.734 113.586 166.819 114.789 165.744C115.992 164.668 116.844 163.625 117.344 162.614H119.196V186.117ZM126.573 179.986L129.59 179.73C129.814 181.199 130.33 182.306 131.139 183.051C131.959 183.786 132.943 184.153 134.093 184.153C135.477 184.153 136.648 183.631 137.606 182.588C138.564 181.545 139.043 180.161 139.043 178.437C139.043 176.798 138.579 175.504 137.653 174.557C136.738 173.61 135.535 173.136 134.045 173.136C133.119 173.136 132.283 173.349 131.538 173.775C130.793 174.19 130.208 174.733 129.782 175.403L127.083 175.052L129.351 163.029H140.99V165.775H131.65L130.389 172.066C131.794 171.087 133.268 170.597 134.811 170.597C136.855 170.597 138.579 171.305 139.985 172.721C141.39 174.137 142.092 175.957 142.092 178.182C142.092 180.3 141.475 182.131 140.24 183.674C138.739 185.569 136.69 186.516 134.093 186.516C131.964 186.516 130.224 185.92 128.872 184.728C127.531 183.536 126.764 181.955 126.573 179.986Z" fill="white"/>
<path d="M159.547 179.092V176.202H168.377V179.092H159.547ZM181.581 186.117H178.707V167.803C178.015 168.463 177.105 169.123 175.977 169.783C174.859 170.443 173.853 170.938 172.959 171.268V168.49C174.567 167.734 175.972 166.819 177.175 165.744C178.377 164.668 179.229 163.625 179.729 162.614H181.581V186.117ZM193.381 173.423C192.188 172.987 191.305 172.364 190.73 171.555C190.155 170.746 189.868 169.778 189.868 168.649C189.868 166.946 190.48 165.515 191.704 164.354C192.928 163.194 194.557 162.614 196.59 162.614C198.634 162.614 200.278 163.21 201.524 164.402C202.769 165.584 203.392 167.026 203.392 168.729C203.392 169.815 203.104 170.762 202.53 171.571C201.965 172.37 201.103 172.987 199.943 173.423C201.38 173.892 202.471 174.648 203.216 175.691C203.972 176.734 204.35 177.979 204.35 179.427C204.35 181.428 203.642 183.11 202.226 184.472C200.81 185.835 198.948 186.516 196.638 186.516C194.328 186.516 192.465 185.835 191.05 184.472C189.634 183.099 188.926 181.391 188.926 179.347C188.926 177.825 189.309 176.553 190.076 175.531C190.853 174.499 191.954 173.796 193.381 173.423ZM192.806 168.554C192.806 169.661 193.162 170.565 193.876 171.268C194.589 171.97 195.515 172.322 196.654 172.322C197.761 172.322 198.666 171.976 199.368 171.284C200.081 170.581 200.438 169.725 200.438 168.713C200.438 167.66 200.071 166.776 199.336 166.063C198.612 165.339 197.708 164.977 196.622 164.977C195.526 164.977 194.615 165.328 193.892 166.031C193.168 166.733 192.806 167.574 192.806 168.554ZM191.88 179.363C191.88 180.183 192.071 180.976 192.455 181.742C192.848 182.508 193.429 183.105 194.195 183.53C194.961 183.945 195.786 184.153 196.67 184.153C198.043 184.153 199.177 183.711 200.071 182.828C200.965 181.944 201.412 180.821 201.412 179.459C201.412 178.075 200.949 176.931 200.023 176.026C199.107 175.121 197.958 174.669 196.574 174.669C195.222 174.669 194.099 175.116 193.205 176.01C192.322 176.904 191.88 178.022 191.88 179.363Z" fill="white"/>
<path d="M231.26 179.475L234.054 179.092C234.129 180.88 234.464 182.104 235.06 182.764C235.656 183.424 236.481 183.754 237.535 183.754C238.312 183.754 238.983 183.578 239.547 183.227C240.111 182.865 240.5 182.381 240.713 181.774C240.925 181.157 241.032 180.177 241.032 178.836V162.71H244.129V178.661C244.129 180.619 243.89 182.136 243.411 183.211C242.943 184.286 242.192 185.106 241.16 185.67C240.138 186.234 238.935 186.516 237.551 186.516C235.497 186.516 233.921 185.925 232.825 184.744C231.739 183.562 231.218 181.806 231.26 179.475ZM259.936 186.117V183.626C258.616 185.542 256.823 186.5 254.556 186.5C253.555 186.5 252.618 186.309 251.746 185.925C250.883 185.542 250.239 185.063 249.814 184.488C249.398 183.903 249.106 183.19 248.935 182.349C248.818 181.785 248.76 180.891 248.76 179.666V169.16H251.634V178.565C251.634 180.066 251.692 181.077 251.809 181.598C251.99 182.354 252.374 182.95 252.959 183.387C253.544 183.812 254.268 184.025 255.13 184.025C255.993 184.025 256.802 183.807 257.557 183.371C258.313 182.924 258.845 182.322 259.154 181.566C259.473 180.8 259.633 179.693 259.633 178.245V169.16H262.507V186.117H259.936ZM266.962 186.117V162.71H269.836V186.117H266.962ZM274.179 192.647L273.859 189.949C274.487 190.119 275.036 190.204 275.504 190.204C276.143 190.204 276.653 190.098 277.037 189.885C277.42 189.672 277.734 189.374 277.979 188.991C278.16 188.704 278.452 187.99 278.857 186.851C278.91 186.692 278.995 186.458 279.112 186.149L272.678 169.16H275.775L279.304 178.98C279.762 180.225 280.171 181.535 280.533 182.908C280.863 181.588 281.257 180.3 281.715 179.044L285.339 169.16H288.213L281.763 186.404C281.071 188.267 280.533 189.55 280.15 190.252C279.639 191.2 279.054 191.892 278.394 192.328C277.734 192.775 276.946 192.999 276.031 192.999C275.477 192.999 274.86 192.881 274.179 192.647ZM314.063 183.355V186.117H298.592C298.57 185.425 298.682 184.76 298.927 184.121C299.321 183.067 299.949 182.029 300.811 181.008C301.684 179.986 302.94 178.804 304.579 177.463C307.123 175.377 308.842 173.727 309.736 172.513C310.63 171.289 311.078 170.134 311.078 169.049C311.078 167.91 310.668 166.952 309.848 166.175C309.039 165.387 307.98 164.993 306.671 164.993C305.287 164.993 304.18 165.408 303.35 166.238C302.519 167.069 302.099 168.218 302.088 169.687L299.135 169.384C299.337 167.181 300.098 165.504 301.418 164.354C302.738 163.194 304.51 162.614 306.735 162.614C308.981 162.614 310.758 163.237 312.067 164.482C313.377 165.728 314.031 167.271 314.031 169.112C314.031 170.049 313.84 170.97 313.457 171.875C313.073 172.779 312.435 173.732 311.541 174.733C310.657 175.733 309.183 177.106 307.118 178.852C305.393 180.3 304.286 181.284 303.797 181.806C303.307 182.317 302.903 182.833 302.583 183.355H314.063ZM317.161 174.573C317.161 171.806 317.443 169.581 318.007 167.899C318.582 166.207 319.428 164.903 320.546 163.987C321.674 163.072 323.09 162.614 324.793 162.614C326.049 162.614 327.151 162.87 328.098 163.38C329.045 163.881 329.828 164.61 330.445 165.568C331.062 166.515 331.547 167.675 331.898 169.049C332.249 170.411 332.425 172.253 332.425 174.573C332.425 177.319 332.143 179.539 331.579 181.231C331.015 182.913 330.168 184.217 329.04 185.143C327.922 186.058 326.507 186.516 324.793 186.516C322.536 186.516 320.764 185.707 319.476 184.089C317.933 182.141 317.161 178.969 317.161 174.573ZM320.115 174.573C320.115 178.416 320.562 180.976 321.456 182.253C322.361 183.52 323.473 184.153 324.793 184.153C326.113 184.153 327.22 183.514 328.114 182.237C329.019 180.96 329.471 178.405 329.471 174.573C329.471 170.72 329.019 168.16 328.114 166.893C327.22 165.626 326.102 164.993 324.761 164.993C323.441 164.993 322.387 165.552 321.6 166.67C320.61 168.096 320.115 170.73 320.115 174.573ZM350.467 183.355V186.117H334.996C334.974 185.425 335.086 184.76 335.331 184.121C335.725 183.067 336.353 182.029 337.215 181.008C338.088 179.986 339.344 178.804 340.983 177.463C343.527 175.377 345.246 173.727 346.14 172.513C347.034 171.289 347.481 170.134 347.481 169.049C347.481 167.91 347.072 166.952 346.252 166.175C345.443 165.387 344.384 164.993 343.075 164.993C341.691 164.993 340.584 165.408 339.754 166.238C338.923 167.069 338.503 168.218 338.492 169.687L335.538 169.384C335.741 167.181 336.502 165.504 337.822 164.354C339.142 163.194 340.914 162.614 343.139 162.614C345.385 162.614 347.162 163.237 348.471 164.482C349.781 165.728 350.435 167.271 350.435 169.112C350.435 170.049 350.244 170.97 349.861 171.875C349.477 172.779 348.839 173.732 347.945 174.733C347.061 175.733 345.587 177.106 343.522 178.852C341.797 180.3 340.69 181.284 340.201 181.806C339.711 182.317 339.307 182.833 338.987 183.355H350.467ZM362.778 186.117V180.513H352.623V177.878L363.304 162.71H365.652V177.878H368.813V180.513H365.652V186.117H362.778ZM362.778 177.878V167.324L355.449 177.878H362.778Z" fill="white"/>
<path d="M148.684 169.83L148.892 171.1C148.487 171.185 148.126 171.227 147.806 171.227C147.285 171.227 146.88 171.145 146.593 170.98C146.305 170.815 146.103 170.599 145.986 170.333C145.869 170.062 145.81 169.495 145.81 168.633V163.755H144.756V162.637H145.81V160.537L147.239 159.675V162.637H148.684V163.755H147.239V168.712C147.239 169.122 147.263 169.386 147.311 169.503C147.364 169.62 147.447 169.713 147.559 169.782C147.676 169.851 147.841 169.886 148.054 169.886C148.213 169.886 148.424 169.867 148.684 169.83ZM150.097 171.115V159.411H151.535V163.611C152.205 162.834 153.051 162.445 154.073 162.445C154.701 162.445 155.247 162.57 155.71 162.82C156.173 163.065 156.503 163.406 156.7 163.842C156.902 164.279 157.003 164.912 157.003 165.742V171.115H155.566V165.742C155.566 165.024 155.409 164.502 155.095 164.178C154.787 163.848 154.347 163.683 153.778 163.683C153.352 163.683 152.95 163.794 152.572 164.018C152.2 164.236 151.934 164.534 151.774 164.912C151.614 165.29 151.535 165.812 151.535 166.477V171.115H150.097Z" fill="white"/>
<path d="M211.392 169.83L211.599 171.1C211.195 171.185 210.833 171.227 210.513 171.227C209.992 171.227 209.587 171.145 209.3 170.98C209.013 170.815 208.81 170.599 208.693 170.333C208.576 170.062 208.518 169.495 208.518 168.633V163.755H207.464V162.637H208.518V160.537L209.947 159.675V162.637H211.392V163.755H209.947V168.712C209.947 169.122 209.971 169.386 210.018 169.503C210.072 169.62 210.154 169.713 210.266 169.782C210.383 169.851 210.548 169.886 210.761 169.886C210.921 169.886 211.131 169.867 211.392 169.83ZM212.805 171.115V159.411H214.242V163.611C214.912 162.834 215.759 162.445 216.781 162.445C217.409 162.445 217.954 162.57 218.417 162.82C218.88 163.065 219.21 163.406 219.407 163.842C219.609 164.279 219.711 164.912 219.711 165.742V171.115H218.274V165.742C218.274 165.024 218.117 164.502 217.802 164.178C217.494 163.848 217.055 163.683 216.485 163.683C216.059 163.683 215.658 163.794 215.28 164.018C214.907 164.236 214.641 164.534 214.481 164.912C214.322 165.29 214.242 165.812 214.242 166.477V171.115H212.805Z" fill="white"/>
<path d="M170.091 212.154L171.406 211.974C171.441 212.816 171.599 213.392 171.879 213.702C172.16 214.013 172.548 214.168 173.044 214.168C173.41 214.168 173.725 214.085 173.991 213.92C174.256 213.75 174.439 213.522 174.539 213.236C174.639 212.946 174.689 212.485 174.689 211.854V204.266H176.147V211.771C176.147 212.693 176.034 213.407 175.809 213.912C175.588 214.418 175.235 214.804 174.749 215.069C174.268 215.335 173.703 215.468 173.051 215.468C172.085 215.468 171.343 215.19 170.828 214.634C170.317 214.078 170.071 213.251 170.091 212.154ZM183.562 214.296C183.061 214.721 182.578 215.022 182.112 215.197C181.651 215.372 181.155 215.46 180.624 215.46C179.748 215.46 179.074 215.247 178.603 214.821C178.133 214.391 177.897 213.842 177.897 213.176C177.897 212.786 177.985 212.43 178.16 212.109C178.34 211.784 178.573 211.523 178.859 211.328C179.149 211.133 179.475 210.985 179.836 210.885C180.101 210.815 180.502 210.747 181.038 210.682C182.129 210.552 182.933 210.396 183.449 210.216C183.454 210.031 183.457 209.913 183.457 209.863C183.457 209.312 183.329 208.924 183.074 208.699C182.728 208.393 182.215 208.24 181.533 208.24C180.897 208.24 180.427 208.353 180.121 208.578C179.821 208.799 179.598 209.192 179.452 209.758L178.13 209.578C178.25 209.012 178.448 208.556 178.724 208.21C178.999 207.86 179.397 207.592 179.918 207.406C180.439 207.216 181.043 207.121 181.729 207.121C182.41 207.121 182.963 207.201 183.389 207.361C183.815 207.521 184.128 207.724 184.328 207.97C184.529 208.21 184.669 208.516 184.749 208.886C184.794 209.117 184.817 209.532 184.817 210.133V211.937C184.817 213.194 184.844 213.99 184.899 214.326C184.959 214.656 185.075 214.974 185.245 215.28H183.832C183.692 214.999 183.602 214.671 183.562 214.296ZM183.449 211.275C182.958 211.476 182.222 211.646 181.24 211.786C180.684 211.866 180.291 211.957 180.061 212.057C179.831 212.157 179.653 212.305 179.528 212.5C179.402 212.69 179.34 212.903 179.34 213.139C179.34 213.499 179.475 213.8 179.745 214.04C180.021 214.281 180.422 214.401 180.947 214.401C181.468 214.401 181.932 214.288 182.337 214.063C182.743 213.832 183.041 213.519 183.231 213.124C183.377 212.818 183.449 212.367 183.449 211.771V211.275ZM186.86 218.353L186.71 217.083C187.005 217.163 187.263 217.203 187.484 217.203C187.784 217.203 188.025 217.153 188.205 217.053C188.385 216.953 188.533 216.812 188.648 216.632C188.733 216.497 188.871 216.161 189.061 215.625C189.086 215.55 189.126 215.44 189.182 215.295L186.154 207.301H187.611L189.272 211.922C189.487 212.508 189.68 213.124 189.85 213.77C190.005 213.149 190.191 212.543 190.406 211.952L192.112 207.301H193.464L190.429 215.415C190.103 216.292 189.85 216.895 189.67 217.226C189.429 217.671 189.154 217.997 188.843 218.202C188.533 218.413 188.162 218.518 187.732 218.518C187.471 218.518 187.181 218.463 186.86 218.353ZM194.613 218.338V207.301H195.845V208.338C196.136 207.932 196.464 207.629 196.83 207.429C197.195 207.223 197.639 207.121 198.159 207.121C198.841 207.121 199.442 207.296 199.963 207.647C200.483 207.997 200.877 208.493 201.142 209.134C201.408 209.77 201.54 210.469 201.54 211.23C201.54 212.047 201.392 212.783 201.097 213.439C200.806 214.09 200.381 214.591 199.82 214.942C199.264 215.287 198.678 215.46 198.062 215.46C197.611 215.46 197.205 215.365 196.845 215.175C196.489 214.984 196.196 214.744 195.966 214.453V218.338H194.613ZM195.838 211.336C195.838 212.362 196.046 213.121 196.462 213.612C196.877 214.103 197.381 214.348 197.972 214.348C198.573 214.348 199.086 214.095 199.512 213.589C199.943 213.079 200.158 212.29 200.158 211.223C200.158 210.206 199.948 209.445 199.527 208.939C199.111 208.433 198.613 208.18 198.032 208.18C197.456 208.18 196.945 208.451 196.499 208.992C196.058 209.527 195.838 210.309 195.838 211.336ZM208.64 212.71L210.037 212.883C209.817 213.7 209.409 214.333 208.813 214.784C208.217 215.235 207.455 215.46 206.529 215.46C205.362 215.46 204.435 215.102 203.749 214.386C203.068 213.665 202.727 212.655 202.727 211.358C202.727 210.016 203.073 208.974 203.764 208.233C204.455 207.491 205.352 207.121 206.454 207.121C207.52 207.121 208.392 207.484 209.068 208.21C209.744 208.936 210.082 209.958 210.082 211.275C210.082 211.356 210.08 211.476 210.075 211.636H204.125C204.175 212.513 204.423 213.184 204.868 213.649C205.314 214.115 205.87 214.348 206.536 214.348C207.032 214.348 207.455 214.218 207.806 213.958C208.157 213.697 208.435 213.281 208.64 212.71ZM204.2 210.524H208.655C208.595 209.853 208.425 209.35 208.144 209.014C207.713 208.493 207.155 208.233 206.469 208.233C205.848 208.233 205.324 208.441 204.899 208.856C204.478 209.272 204.245 209.828 204.2 210.524ZM217.205 212.71L218.602 212.883C218.382 213.7 217.973 214.333 217.377 214.784C216.781 215.235 216.02 215.46 215.093 215.46C213.926 215.46 213 215.102 212.314 214.386C211.633 213.665 211.292 212.655 211.292 211.358C211.292 210.016 211.638 208.974 212.329 208.233C213.02 207.491 213.916 207.121 215.018 207.121C216.085 207.121 216.957 207.484 217.633 208.21C218.309 208.936 218.647 209.958 218.647 211.275C218.647 211.356 218.645 211.476 218.64 211.636H212.689C212.739 212.513 212.987 213.184 213.433 213.649C213.879 214.115 214.435 214.348 215.101 214.348C215.597 214.348 216.02 214.218 216.371 213.958C216.721 213.697 216.999 213.281 217.205 212.71ZM212.764 210.524H217.22C217.16 209.853 216.989 209.35 216.709 209.014C216.278 208.493 215.72 208.233 215.033 208.233C214.412 208.233 213.889 208.441 213.463 208.856C213.042 209.272 212.81 209.828 212.764 210.524ZM224.763 215.28V204.266H228.917C229.648 204.266 230.207 204.301 230.593 204.371C231.133 204.461 231.587 204.634 231.952 204.889C232.318 205.14 232.611 205.493 232.831 205.949C233.057 206.405 233.169 206.905 233.169 207.451C233.169 208.388 232.871 209.182 232.275 209.833C231.679 210.479 230.603 210.802 229.045 210.802H226.22V215.28H224.763ZM226.22 209.502H229.067C230.009 209.502 230.678 209.327 231.073 208.976C231.469 208.626 231.667 208.133 231.667 207.496C231.667 207.036 231.549 206.642 231.314 206.317C231.083 205.986 230.778 205.768 230.397 205.663C230.152 205.598 229.699 205.566 229.037 205.566H226.22V209.502ZM240.059 214.296C239.558 214.721 239.075 215.022 238.609 215.197C238.148 215.372 237.652 215.46 237.121 215.46C236.245 215.46 235.571 215.247 235.1 214.821C234.629 214.391 234.394 213.842 234.394 213.176C234.394 212.786 234.482 212.43 234.657 212.109C234.837 211.784 235.07 211.523 235.356 211.328C235.646 211.133 235.972 210.985 236.332 210.885C236.598 210.815 236.999 210.747 237.534 210.682C238.626 210.552 239.43 210.396 239.946 210.216C239.951 210.031 239.954 209.913 239.954 209.863C239.954 209.312 239.826 208.924 239.57 208.699C239.225 208.393 238.711 208.24 238.03 208.24C237.394 208.24 236.923 208.353 236.618 208.578C236.317 208.799 236.094 209.192 235.949 209.758L234.627 209.578C234.747 209.012 234.945 208.556 235.22 208.21C235.496 207.86 235.894 207.592 236.415 207.406C236.936 207.216 237.539 207.121 238.226 207.121C238.907 207.121 239.46 207.201 239.886 207.361C240.312 207.521 240.625 207.724 240.825 207.97C241.025 208.21 241.166 208.516 241.246 208.886C241.291 209.117 241.313 209.532 241.313 210.133V211.937C241.313 213.194 241.341 213.99 241.396 214.326C241.456 214.656 241.571 214.974 241.742 215.28H240.329C240.189 214.999 240.099 214.671 240.059 214.296ZM239.946 211.275C239.455 211.476 238.719 211.646 237.737 211.786C237.181 211.866 236.788 211.957 236.558 212.057C236.327 212.157 236.15 212.305 236.024 212.5C235.899 212.69 235.837 212.903 235.837 213.139C235.837 213.499 235.972 213.8 236.242 214.04C236.518 214.281 236.918 214.401 237.444 214.401C237.965 214.401 238.428 214.288 238.834 214.063C239.24 213.832 239.538 213.519 239.728 213.124C239.873 212.818 239.946 212.367 239.946 211.771V211.275ZM243.387 215.28V204.266H244.739V215.28H243.387ZM252.049 214.296C251.548 214.721 251.065 215.022 250.599 215.197C250.139 215.372 249.643 215.46 249.112 215.46C248.235 215.46 247.562 215.247 247.091 214.821C246.62 214.391 246.385 213.842 246.385 213.176C246.385 212.786 246.472 212.43 246.648 212.109C246.828 211.784 247.061 211.523 247.346 211.328C247.637 211.133 247.962 210.985 248.323 210.885C248.588 210.815 248.989 210.747 249.525 210.682C250.617 210.552 251.421 210.396 251.937 210.216C251.942 210.031 251.944 209.913 251.944 209.863C251.944 209.312 251.816 208.924 251.561 208.699C251.215 208.393 250.702 208.24 250.021 208.24C249.385 208.24 248.914 208.353 248.608 208.578C248.308 208.799 248.085 209.192 247.94 209.758L246.618 209.578C246.738 209.012 246.936 208.556 247.211 208.21C247.487 207.86 247.885 207.592 248.406 207.406C248.926 207.216 249.53 207.121 250.216 207.121C250.897 207.121 251.451 207.201 251.877 207.361C252.302 207.521 252.615 207.724 252.816 207.97C253.016 208.21 253.156 208.516 253.236 208.886C253.281 209.117 253.304 209.532 253.304 210.133V211.937C253.304 213.194 253.332 213.99 253.387 214.326C253.447 214.656 253.562 214.974 253.732 215.28H252.32C252.18 214.999 252.089 214.671 252.049 214.296ZM251.937 211.275C251.446 211.476 250.71 211.646 249.728 211.786C249.172 211.866 248.779 211.957 248.548 212.057C248.318 212.157 248.14 212.305 248.015 212.5C247.89 212.69 247.827 212.903 247.827 213.139C247.827 213.499 247.962 213.8 248.233 214.04C248.508 214.281 248.909 214.401 249.435 214.401C249.956 214.401 250.419 214.288 250.825 214.063C251.23 213.832 251.528 213.519 251.719 213.124C251.864 212.818 251.937 212.367 251.937 211.771V211.275ZM260.614 212.357L261.944 212.53C261.799 213.447 261.425 214.165 260.824 214.686C260.228 215.202 259.495 215.46 258.623 215.46C257.531 215.46 256.652 215.104 255.986 214.393C255.325 213.677 254.994 212.653 254.994 211.32C254.994 210.459 255.137 209.705 255.423 209.059C255.708 208.413 256.141 207.93 256.722 207.609C257.308 207.284 257.944 207.121 258.631 207.121C259.497 207.121 260.206 207.341 260.757 207.782C261.308 208.218 261.661 208.839 261.816 209.645L260.501 209.848C260.376 209.312 260.153 208.909 259.833 208.638C259.517 208.368 259.134 208.233 258.683 208.233C258.002 208.233 257.449 208.478 257.023 208.969C256.597 209.455 256.384 210.226 256.384 211.283C256.384 212.355 256.59 213.134 257 213.619C257.411 214.105 257.947 214.348 258.608 214.348C259.139 214.348 259.582 214.185 259.938 213.86C260.293 213.534 260.519 213.033 260.614 212.357ZM268.563 212.71L269.96 212.883C269.74 213.7 269.331 214.333 268.735 214.784C268.139 215.235 267.378 215.46 266.452 215.46C265.285 215.46 264.358 215.102 263.672 214.386C262.991 213.665 262.65 212.655 262.65 211.358C262.65 210.016 262.996 208.974 263.687 208.233C264.378 207.491 265.275 207.121 266.376 207.121C267.443 207.121 268.315 207.484 268.991 208.21C269.667 208.936 270.005 209.958 270.005 211.275C270.005 211.356 270.003 211.476 269.998 211.636H264.047C264.097 212.513 264.345 213.184 264.791 213.649C265.237 214.115 265.793 214.348 266.459 214.348C266.955 214.348 267.378 214.218 267.729 213.958C268.079 213.697 268.357 213.281 268.563 212.71ZM264.123 210.524H268.578C268.518 209.853 268.347 209.35 268.067 209.014C267.636 208.493 267.078 208.233 266.391 208.233C265.77 208.233 265.247 208.441 264.821 208.856C264.401 209.272 264.168 209.828 264.123 210.524ZM272.019 215.28V213.74H273.559V215.28C273.559 215.846 273.459 216.302 273.258 216.647C273.058 216.998 272.74 217.268 272.304 217.459L271.928 216.88C272.214 216.755 272.424 216.569 272.56 216.324C272.695 216.084 272.77 215.736 272.785 215.28H272.019ZM278.337 215.28L282.567 204.266H284.137L288.645 215.28H286.984L285.7 211.944H281.094L279.885 215.28H278.337ZM281.515 210.757H285.249L284.099 207.707C283.749 206.78 283.488 206.019 283.318 205.423C283.178 206.129 282.98 206.83 282.724 207.526L281.515 210.757ZM289.388 215.941L290.703 216.136C290.758 216.542 290.911 216.837 291.161 217.023C291.497 217.273 291.955 217.398 292.536 217.398C293.162 217.398 293.646 217.273 293.986 217.023C294.327 216.772 294.557 216.422 294.677 215.971C294.748 215.695 294.78 215.117 294.775 214.235C294.184 214.932 293.448 215.28 292.566 215.28C291.469 215.28 290.62 214.884 290.019 214.093C289.418 213.301 289.118 212.352 289.118 211.245C289.118 210.484 289.256 209.783 289.531 209.142C289.807 208.496 290.205 207.997 290.726 207.647C291.252 207.296 291.868 207.121 292.574 207.121C293.515 207.121 294.292 207.501 294.903 208.263V207.301H296.15V214.198C296.15 215.44 296.022 216.319 295.767 216.835C295.516 217.356 295.116 217.767 294.565 218.067C294.019 218.368 293.345 218.518 292.544 218.518C291.592 218.518 290.823 218.302 290.237 217.872C289.651 217.446 289.368 216.802 289.388 215.941ZM290.508 211.148C290.508 212.194 290.716 212.958 291.131 213.439C291.547 213.92 292.068 214.16 292.694 214.16C293.315 214.16 293.836 213.922 294.257 213.447C294.677 212.966 294.888 212.215 294.888 211.193C294.888 210.216 294.67 209.48 294.234 208.984C293.803 208.488 293.283 208.24 292.671 208.24C292.07 208.24 291.56 208.486 291.139 208.976C290.718 209.462 290.508 210.186 290.508 211.148ZM298.186 215.28V207.301H299.403V208.511C299.714 207.945 299.999 207.572 300.259 207.391C300.525 207.211 300.815 207.121 301.131 207.121C301.587 207.121 302.05 207.266 302.521 207.557L302.055 208.811C301.725 208.616 301.394 208.518 301.063 208.518C300.768 208.518 300.502 208.608 300.267 208.789C300.032 208.964 299.864 209.209 299.764 209.525C299.613 210.006 299.538 210.532 299.538 211.103V215.28H298.186ZM308.531 214.296C308.03 214.721 307.547 215.022 307.081 215.197C306.62 215.372 306.125 215.46 305.594 215.46C304.717 215.46 304.043 215.247 303.573 214.821C303.102 214.391 302.866 213.842 302.866 213.176C302.866 212.786 302.954 212.43 303.129 212.109C303.31 211.784 303.543 211.523 303.828 211.328C304.119 211.133 304.444 210.985 304.805 210.885C305.07 210.815 305.471 210.747 306.007 210.682C307.099 210.552 307.903 210.396 308.418 210.216C308.423 210.031 308.426 209.913 308.426 209.863C308.426 209.312 308.298 208.924 308.043 208.699C307.697 208.393 307.184 208.24 306.503 208.24C305.867 208.24 305.396 208.353 305.09 208.578C304.79 208.799 304.567 209.192 304.422 209.758L303.099 209.578C303.22 209.012 303.417 208.556 303.693 208.21C303.968 207.86 304.367 207.592 304.887 207.406C305.408 207.216 306.012 207.121 306.698 207.121C307.379 207.121 307.933 207.201 308.358 207.361C308.784 207.521 309.097 207.724 309.297 207.97C309.498 208.21 309.638 208.516 309.718 208.886C309.763 209.117 309.786 209.532 309.786 210.133V211.937C309.786 213.194 309.813 213.99 309.868 214.326C309.929 214.656 310.044 214.974 310.214 215.28H308.802C308.661 214.999 308.571 214.671 308.531 214.296ZM308.418 211.275C307.928 211.476 307.191 211.646 306.21 211.786C305.654 211.866 305.261 211.957 305.03 212.057C304.8 212.157 304.622 212.305 304.497 212.5C304.372 212.69 304.309 212.903 304.309 213.139C304.309 213.499 304.444 213.8 304.715 214.04C304.99 214.281 305.391 214.401 305.917 214.401C306.438 214.401 306.901 214.288 307.307 214.063C307.712 213.832 308.01 213.519 308.201 213.124C308.346 212.818 308.418 212.367 308.418 211.771V211.275Z" fill="white"/>
<path d="M33.0824 133.69V120.678H34.8044V133.69H33.0824ZM37.6449 133.69V124.264H39.0828V125.604C39.7752 124.568 40.7753 124.051 42.0831 124.051C42.6512 124.051 43.1719 124.154 43.6453 124.361C44.1247 124.562 44.4827 124.829 44.7194 125.16C44.9561 125.492 45.1218 125.885 45.2165 126.341C45.2756 126.637 45.3052 127.154 45.3052 127.894V133.69H43.7075V127.956C43.7075 127.305 43.6453 126.82 43.5211 126.501C43.3968 126.175 43.1749 125.918 42.8553 125.728C42.5417 125.533 42.1718 125.435 41.7458 125.435C41.0652 125.435 40.4764 125.651 39.9794 126.083C39.4882 126.515 39.2426 127.335 39.2426 128.542V133.69H37.6449ZM51.2524 132.261L51.4832 133.673C51.0335 133.767 50.6311 133.815 50.276 133.815C49.6961 133.815 49.2464 133.723 48.9268 133.54C48.6073 133.356 48.3824 133.116 48.2522 132.821C48.122 132.519 48.0569 131.889 48.0569 130.93V125.506H46.8852V124.264H48.0569V121.929L49.6458 120.97V124.264H51.2524V125.506H49.6458V131.019C49.6458 131.474 49.6724 131.767 49.7257 131.897C49.7849 132.028 49.8766 132.131 50.0009 132.208C50.131 132.285 50.3145 132.323 50.5512 132.323C50.7287 132.323 50.9625 132.303 51.2524 132.261ZM59.2767 130.655L60.9278 130.859C60.6674 131.823 60.1851 132.572 59.4809 133.105C58.7767 133.637 57.8772 133.903 56.7825 133.903C55.4037 133.903 54.3089 133.48 53.4982 132.634C52.6934 131.782 52.291 130.59 52.291 129.057C52.291 127.471 52.6993 126.24 53.5159 125.364C54.3326 124.489 55.3918 124.051 56.6937 124.051C57.9542 124.051 58.9838 124.48 59.7827 125.338C60.5816 126.196 60.981 127.403 60.981 128.959C60.981 129.054 60.9781 129.196 60.9721 129.385H53.942C54.0012 130.421 54.2941 131.214 54.8208 131.764C55.3474 132.315 56.0043 132.59 56.7913 132.59C57.3772 132.59 57.8772 132.436 58.2915 132.128C58.7057 131.82 59.0341 131.329 59.2767 130.655ZM54.0308 128.072H59.2945C59.2235 127.279 59.0223 126.684 58.6909 126.287C58.182 125.672 57.5222 125.364 56.7114 125.364C55.9777 125.364 55.3593 125.61 54.8563 126.101C54.3592 126.592 54.084 127.249 54.0308 128.072ZM62.925 133.69V124.264H64.3629V125.693C64.7298 125.024 65.0671 124.583 65.3749 124.37C65.6885 124.157 66.0317 124.051 66.4045 124.051C66.943 124.051 67.4904 124.222 68.0467 124.565L67.4963 126.048C67.1058 125.817 66.7152 125.702 66.3246 125.702C65.9755 125.702 65.6619 125.808 65.3837 126.021C65.1056 126.228 64.9074 126.518 64.789 126.891C64.6115 127.459 64.5227 128.081 64.5227 128.755V133.69H62.925ZM68.9964 133.69V124.264H70.4344V125.604C71.1268 124.568 72.1269 124.051 73.4347 124.051C74.0028 124.051 74.5235 124.154 74.9969 124.361C75.4762 124.562 75.8343 124.829 76.071 125.16C76.3077 125.492 76.4734 125.885 76.568 126.341C76.6272 126.637 76.6568 127.154 76.6568 127.894V133.69H75.0591V127.956C75.0591 127.305 74.9969 126.82 74.8726 126.501C74.7484 126.175 74.5265 125.918 74.2069 125.728C73.8933 125.533 73.5234 125.435 73.0974 125.435C72.4168 125.435 71.828 125.651 71.3309 126.083C70.8398 126.515 70.5942 127.335 70.5942 128.542V133.69H68.9964ZM85.267 132.528C84.6752 133.031 84.1041 133.386 83.5538 133.593C83.0094 133.8 82.4235 133.903 81.7963 133.903C80.7607 133.903 79.9648 133.652 79.4085 133.149C78.8523 132.64 78.5741 131.992 78.5741 131.205C78.5741 130.743 78.6777 130.323 78.8848 129.945C79.0978 129.56 79.373 129.252 79.7103 129.021C80.0535 128.791 80.4382 128.616 80.8642 128.498C81.1779 128.415 81.6513 128.335 82.2845 128.258C83.5745 128.104 84.5243 127.921 85.1338 127.708C85.1397 127.489 85.1427 127.35 85.1427 127.291C85.1427 126.64 84.9918 126.181 84.69 125.915C84.2817 125.554 83.6751 125.373 82.8703 125.373C82.1188 125.373 81.5625 125.506 81.2016 125.773C80.8465 126.033 80.5832 126.498 80.4115 127.166L78.8493 126.953C78.9913 126.285 79.2251 125.746 79.5505 125.338C79.876 124.923 80.3465 124.607 80.9619 124.388C81.5773 124.163 82.2904 124.051 83.1011 124.051C83.9059 124.051 84.5598 124.145 85.0628 124.335C85.5658 124.524 85.9357 124.764 86.1724 125.054C86.4091 125.338 86.5748 125.699 86.6694 126.137C86.7227 126.409 86.7493 126.9 86.7493 127.61V129.74C86.7493 131.226 86.7819 132.167 86.847 132.563C86.918 132.954 87.0541 133.329 87.2553 133.69H85.5865C85.4208 133.359 85.3143 132.971 85.267 132.528ZM85.1338 128.959C84.5539 129.196 83.684 129.397 82.5241 129.563C81.8673 129.658 81.4027 129.764 81.1305 129.882C80.8583 130.001 80.6483 130.175 80.5003 130.406C80.3524 130.631 80.2784 130.883 80.2784 131.161C80.2784 131.587 80.4382 131.942 80.7577 132.226C81.0832 132.51 81.5566 132.652 82.178 132.652C82.7934 132.652 83.3408 132.519 83.8201 132.252C84.2994 131.98 84.6515 131.61 84.8764 131.143C85.048 130.782 85.1338 130.249 85.1338 129.545V128.959ZM92.7232 132.261L92.954 133.673C92.5042 133.767 92.1018 133.815 91.7468 133.815C91.1668 133.815 90.7171 133.723 90.3975 133.54C90.078 133.356 89.8531 133.116 89.7229 132.821C89.5927 132.519 89.5276 131.889 89.5276 130.93V125.506H88.356V124.264H89.5276V121.929L91.1165 120.97V124.264H92.7232V125.506H91.1165V131.019C91.1165 131.474 91.1432 131.767 91.1964 131.897C91.2556 132.028 91.3473 132.131 91.4716 132.208C91.6018 132.285 91.7852 132.323 92.0219 132.323C92.1995 132.323 92.4332 132.303 92.7232 132.261ZM94.3032 122.515V120.678H95.9009V122.515H94.3032ZM94.3032 133.69V124.264H95.9009V133.69H94.3032ZM97.7472 128.977C97.7472 127.231 98.2325 125.938 99.203 125.098C100.014 124.4 101.002 124.051 102.168 124.051C103.464 124.051 104.523 124.477 105.345 125.329C106.168 126.175 106.579 127.347 106.579 128.844C106.579 130.057 106.396 131.013 106.029 131.711C105.668 132.403 105.138 132.942 104.44 133.326C103.748 133.711 102.99 133.903 102.168 133.903C100.848 133.903 99.7799 133.48 98.9633 132.634C98.1526 131.788 97.7472 130.569 97.7472 128.977ZM99.3894 128.977C99.3894 130.184 99.6527 131.09 100.179 131.693C100.706 132.291 101.369 132.59 102.168 132.59C102.961 132.59 103.62 132.288 104.147 131.684C104.674 131.081 104.937 130.161 104.937 128.924C104.937 127.758 104.671 126.876 104.138 126.279C103.612 125.675 102.955 125.373 102.168 125.373C101.369 125.373 100.706 125.672 100.179 126.27C99.6527 126.867 99.3894 127.77 99.3894 128.977ZM108.461 133.69V124.264H109.899V125.604C110.591 124.568 111.592 124.051 112.899 124.051C113.467 124.051 113.988 124.154 114.462 124.361C114.941 124.562 115.299 124.829 115.536 125.16C115.772 125.492 115.938 125.885 116.033 126.341C116.092 126.637 116.121 127.154 116.121 127.894V133.69H114.524V127.956C114.524 127.305 114.462 126.82 114.337 126.501C114.213 126.175 113.991 125.918 113.672 125.728C113.358 125.533 112.988 125.435 112.562 125.435C111.881 125.435 111.293 125.651 110.796 126.083C110.304 126.515 110.059 127.335 110.059 128.542V133.69H108.461ZM124.732 132.528C124.14 133.031 123.569 133.386 123.018 133.593C122.474 133.8 121.888 133.903 121.261 133.903C120.225 133.903 119.429 133.652 118.873 133.149C118.317 132.64 118.039 131.992 118.039 131.205C118.039 130.743 118.142 130.323 118.349 129.945C118.562 129.56 118.838 129.252 119.175 129.021C119.518 128.791 119.903 128.616 120.329 128.498C120.643 128.415 121.116 128.335 121.749 128.258C123.039 128.104 123.989 127.921 124.598 127.708C124.604 127.489 124.607 127.35 124.607 127.291C124.607 126.64 124.456 126.181 124.155 125.915C123.746 125.554 123.14 125.373 122.335 125.373C121.583 125.373 121.027 125.506 120.666 125.773C120.311 126.033 120.048 126.498 119.876 127.166L118.314 126.953C118.456 126.285 118.69 125.746 119.015 125.338C119.341 124.923 119.811 124.607 120.427 124.388C121.042 124.163 121.755 124.051 122.566 124.051C123.371 124.051 124.024 124.145 124.527 124.335C125.03 124.524 125.4 124.764 125.637 125.054C125.874 125.338 126.039 125.699 126.134 126.137C126.187 126.409 126.214 126.9 126.214 127.61V129.74C126.214 131.226 126.247 132.167 126.312 132.563C126.383 132.954 126.519 133.329 126.72 133.69H125.051C124.885 133.359 124.779 132.971 124.732 132.528ZM124.598 128.959C124.019 129.196 123.149 129.397 121.989 129.563C121.332 129.658 120.867 129.764 120.595 129.882C120.323 130.001 120.113 130.175 119.965 130.406C119.817 130.631 119.743 130.883 119.743 131.161C119.743 131.587 119.903 131.942 120.222 132.226C120.548 132.51 121.021 132.652 121.643 132.652C122.258 132.652 122.805 132.519 123.285 132.252C123.764 131.98 124.116 131.61 124.341 131.143C124.513 130.782 124.598 130.249 124.598 129.545V128.959ZM128.664 133.69V120.678H130.262V133.69H128.664ZM147.296 129.128L149.018 129.563C148.657 130.977 148.006 132.057 147.065 132.803C146.13 133.542 144.985 133.912 143.63 133.912C142.227 133.912 141.085 133.628 140.203 133.06C139.327 132.486 138.659 131.658 138.197 130.575C137.742 129.492 137.514 128.329 137.514 127.086C137.514 125.731 137.771 124.551 138.286 123.545C138.807 122.533 139.543 121.766 140.496 121.246C141.455 120.719 142.508 120.456 143.656 120.456C144.958 120.456 146.053 120.787 146.94 121.45C147.828 122.113 148.447 123.045 148.796 124.246L147.1 124.645C146.798 123.699 146.361 123.009 145.787 122.577C145.213 122.145 144.491 121.929 143.621 121.929C142.621 121.929 141.783 122.169 141.109 122.648C140.44 123.127 139.97 123.772 139.697 124.583C139.425 125.388 139.289 126.219 139.289 127.077C139.289 128.184 139.449 129.152 139.768 129.98C140.094 130.803 140.597 131.418 141.277 131.826C141.958 132.235 142.695 132.439 143.488 132.439C144.452 132.439 145.269 132.161 145.937 131.604C146.606 131.048 147.059 130.223 147.296 129.128ZM150.349 128.977C150.349 127.231 150.834 125.938 151.805 125.098C152.615 124.4 153.604 124.051 154.769 124.051C156.065 124.051 157.125 124.477 157.947 125.329C158.77 126.175 159.181 127.347 159.181 128.844C159.181 130.057 158.998 131.013 158.631 131.711C158.27 132.403 157.74 132.942 157.042 133.326C156.349 133.711 155.592 133.903 154.769 133.903C153.45 133.903 152.382 133.48 151.565 132.634C150.754 131.788 150.349 130.569 150.349 128.977ZM151.991 128.977C151.991 130.184 152.254 131.09 152.781 131.693C153.308 132.291 153.971 132.59 154.769 132.59C155.562 132.59 156.222 132.288 156.749 131.684C157.276 131.081 157.539 130.161 157.539 128.924C157.539 127.758 157.273 126.876 156.74 126.279C156.213 125.675 155.557 125.373 154.769 125.373C153.971 125.373 153.308 125.672 152.781 126.27C152.254 126.867 151.991 127.77 151.991 128.977ZM161.063 133.69V124.264H162.501V125.604C163.193 124.568 164.193 124.051 165.501 124.051C166.069 124.051 166.59 124.154 167.063 124.361C167.543 124.562 167.901 124.829 168.137 125.16C168.374 125.492 168.54 125.885 168.634 126.341C168.694 126.637 168.723 127.154 168.723 127.894V133.69H167.125V127.956C167.125 127.305 167.063 126.82 166.939 126.501C166.815 126.175 166.593 125.918 166.273 125.728C165.96 125.533 165.59 125.435 165.164 125.435C164.483 125.435 163.894 125.651 163.397 126.083C162.906 126.515 162.661 127.335 162.661 128.542V133.69H161.063ZM171.564 133.69V125.506H170.152V124.264H171.564V123.261C171.564 122.627 171.62 122.157 171.732 121.849C171.886 121.435 172.155 121.101 172.54 120.846C172.931 120.586 173.475 120.456 174.173 120.456C174.623 120.456 175.12 120.509 175.665 120.615L175.425 122.009C175.094 121.95 174.78 121.92 174.484 121.92C173.999 121.92 173.656 122.024 173.454 122.231C173.253 122.438 173.153 122.826 173.153 123.394V124.264H174.99V125.506H173.153V133.69H171.564ZM182.695 130.655L184.346 130.859C184.085 131.823 183.603 132.572 182.899 133.105C182.195 133.637 181.295 133.903 180.201 133.903C178.822 133.903 177.727 133.48 176.916 132.634C176.111 131.782 175.709 130.59 175.709 129.057C175.709 127.471 176.117 126.24 176.934 125.364C177.751 124.489 178.81 124.051 180.112 124.051C181.372 124.051 182.402 124.48 183.201 125.338C184 126.196 184.399 127.403 184.399 128.959C184.399 129.054 184.396 129.196 184.39 129.385H177.36C177.419 130.421 177.712 131.214 178.239 131.764C178.765 132.315 179.422 132.59 180.209 132.59C180.795 132.59 181.295 132.436 181.709 132.128C182.124 131.82 182.452 131.329 182.695 130.655ZM177.449 128.072H182.713C182.642 127.279 182.44 126.684 182.109 126.287C181.6 125.672 180.94 125.364 180.129 125.364C179.396 125.364 178.777 125.61 178.274 126.101C177.777 126.592 177.502 127.249 177.449 128.072ZM186.343 133.69V124.264H187.781V125.693C188.148 125.024 188.485 124.583 188.793 124.37C189.107 124.157 189.45 124.051 189.823 124.051C190.361 124.051 190.908 124.222 191.465 124.565L190.914 126.048C190.524 125.817 190.133 125.702 189.743 125.702C189.394 125.702 189.08 125.808 188.802 126.021C188.524 126.228 188.325 126.518 188.207 126.891C188.03 127.459 187.941 128.081 187.941 128.755V133.69H186.343ZM198.868 130.655L200.519 130.859C200.258 131.823 199.776 132.572 199.072 133.105C198.368 133.637 197.468 133.903 196.373 133.903C194.995 133.903 193.9 133.48 193.089 132.634C192.284 131.782 191.882 130.59 191.882 129.057C191.882 127.471 192.29 126.24 193.107 125.364C193.923 124.489 194.983 124.051 196.285 124.051C197.545 124.051 198.575 124.48 199.374 125.338C200.172 126.196 200.572 127.403 200.572 128.959C200.572 129.054 200.569 129.196 200.563 129.385H193.533C193.592 130.421 193.885 131.214 194.412 131.764C194.938 132.315 195.595 132.59 196.382 132.59C196.968 132.59 197.468 132.436 197.882 132.128C198.297 131.82 198.625 131.329 198.868 130.655ZM193.622 128.072H198.885C198.814 127.279 198.613 126.684 198.282 126.287C197.773 125.672 197.113 125.364 196.302 125.364C195.569 125.364 194.95 125.61 194.447 126.101C193.95 126.592 193.675 127.249 193.622 128.072ZM202.534 133.69V124.264H203.972V125.604C204.664 124.568 205.664 124.051 206.972 124.051C207.54 124.051 208.061 124.154 208.534 124.361C209.013 124.562 209.371 124.829 209.608 125.16C209.845 125.492 210.011 125.885 210.105 126.341C210.164 126.637 210.194 127.154 210.194 127.894V133.69H208.596V127.956C208.596 127.305 208.534 126.82 208.41 126.501C208.286 126.175 208.064 125.918 207.744 125.728C207.43 125.533 207.061 125.435 206.635 125.435C205.954 125.435 205.365 125.651 204.868 126.083C204.377 126.515 204.131 127.335 204.131 128.542V133.69H202.534ZM218.804 130.237L220.375 130.442C220.204 131.525 219.763 132.374 219.053 132.989C218.348 133.599 217.482 133.903 216.452 133.903C215.162 133.903 214.123 133.483 213.336 132.643C212.555 131.797 212.165 130.587 212.165 129.013C212.165 127.995 212.333 127.104 212.671 126.341C213.008 125.577 213.52 125.006 214.206 124.628C214.898 124.243 215.65 124.051 216.461 124.051C217.484 124.051 218.322 124.311 218.973 124.832C219.624 125.347 220.041 126.08 220.224 127.033L218.671 127.273C218.523 126.64 218.26 126.163 217.881 125.844C217.508 125.524 217.055 125.364 216.523 125.364C215.718 125.364 215.064 125.654 214.561 126.234C214.058 126.808 213.807 127.72 213.807 128.968C213.807 130.235 214.049 131.155 214.535 131.729C215.02 132.303 215.653 132.59 216.434 132.59C217.061 132.59 217.585 132.397 218.005 132.013C218.425 131.628 218.692 131.036 218.804 130.237ZM228.195 130.655L229.846 130.859C229.586 131.823 229.104 132.572 228.4 133.105C227.695 133.637 226.796 133.903 225.701 133.903C224.322 133.903 223.228 133.48 222.417 132.634C221.612 131.782 221.21 130.59 221.21 129.057C221.21 127.471 221.618 126.24 222.435 125.364C223.251 124.489 224.31 124.051 225.612 124.051C226.873 124.051 227.902 124.48 228.701 125.338C229.5 126.196 229.9 127.403 229.9 128.959C229.9 129.054 229.897 129.196 229.891 129.385H222.861C222.92 130.421 223.213 131.214 223.739 131.764C224.266 132.315 224.923 132.59 225.71 132.59C226.296 132.59 226.796 132.436 227.21 132.128C227.624 131.82 227.953 131.329 228.195 130.655ZM222.949 128.072H228.213C228.142 127.279 227.941 126.684 227.61 126.287C227.101 125.672 226.441 125.364 225.63 125.364C224.896 125.364 224.278 125.61 223.775 126.101C223.278 126.592 223.003 127.249 222.949 128.072ZM236.326 128.977C236.326 127.231 236.811 125.938 237.782 125.098C238.593 124.4 239.581 124.051 240.747 124.051C242.043 124.051 243.102 124.477 243.924 125.329C244.747 126.175 245.158 127.347 245.158 128.844C245.158 130.057 244.975 131.013 244.608 131.711C244.247 132.403 243.717 132.942 243.019 133.326C242.327 133.711 241.569 133.903 240.747 133.903C239.427 133.903 238.359 133.48 237.542 132.634C236.732 131.788 236.326 130.569 236.326 128.977ZM237.968 128.977C237.968 130.184 238.232 131.09 238.758 131.693C239.285 132.291 239.948 132.59 240.747 132.59C241.54 132.59 242.199 132.288 242.726 131.684C243.253 131.081 243.516 130.161 243.516 128.924C243.516 127.758 243.25 126.876 242.717 126.279C242.191 125.675 241.534 125.373 240.747 125.373C239.948 125.373 239.285 125.672 238.758 126.27C238.232 126.867 237.968 127.77 237.968 128.977ZM247.04 133.69V124.264H248.478V125.604C249.17 124.568 250.171 124.051 251.478 124.051C252.046 124.051 252.567 124.154 253.041 124.361C253.52 124.562 253.878 124.829 254.115 125.16C254.351 125.492 254.517 125.885 254.612 126.341C254.671 126.637 254.7 127.154 254.7 127.894V133.69H253.103V127.956C253.103 127.305 253.041 126.82 252.916 126.501C252.792 126.175 252.57 125.918 252.251 125.728C251.937 125.533 251.567 125.435 251.141 125.435C250.46 125.435 249.872 125.651 249.375 126.083C248.883 126.515 248.638 127.335 248.638 128.542V133.69H247.04ZM261.899 127.353C261.899 125.193 262.479 123.503 263.639 122.284C264.799 121.059 266.296 120.447 268.131 120.447C269.332 120.447 270.415 120.734 271.379 121.308C272.344 121.882 273.078 122.684 273.581 123.713C274.09 124.737 274.344 125.9 274.344 127.202C274.344 128.521 274.078 129.702 273.545 130.743C273.013 131.785 272.258 132.575 271.282 133.113C270.305 133.646 269.252 133.912 268.122 133.912C266.897 133.912 265.802 133.616 264.837 133.025C263.873 132.433 263.142 131.625 262.645 130.601C262.148 129.578 261.899 128.495 261.899 127.353ZM263.675 127.379C263.675 128.947 264.095 130.184 264.935 131.09C265.781 131.989 266.84 132.439 268.113 132.439C269.409 132.439 270.474 131.983 271.308 131.072C272.149 130.161 272.569 128.868 272.569 127.193C272.569 126.134 272.388 125.21 272.027 124.423C271.672 123.63 271.149 123.018 270.456 122.586C269.77 122.148 268.997 121.929 268.139 121.929C266.92 121.929 265.87 122.349 264.988 123.19C264.112 124.024 263.675 125.421 263.675 127.379ZM276.35 133.69V124.264H277.788V125.693C278.155 125.024 278.492 124.583 278.8 124.37C279.114 124.157 279.457 124.051 279.83 124.051C280.368 124.051 280.916 124.222 281.472 124.565L280.921 126.048C280.531 125.817 280.14 125.702 279.75 125.702C279.401 125.702 279.087 125.808 278.809 126.021C278.531 126.228 278.333 126.518 278.214 126.891C278.037 127.459 277.948 128.081 277.948 128.755V133.69H276.35ZM282.129 134.472L283.682 134.702C283.747 135.182 283.928 135.531 284.224 135.75C284.62 136.046 285.161 136.194 285.848 136.194C286.588 136.194 287.159 136.046 287.561 135.75C287.963 135.454 288.236 135.04 288.378 134.507C288.461 134.182 288.499 133.498 288.493 132.457C287.795 133.279 286.925 133.69 285.883 133.69C284.587 133.69 283.584 133.223 282.874 132.288C282.164 131.353 281.809 130.232 281.809 128.924C281.809 128.024 281.972 127.196 282.297 126.438C282.623 125.675 283.093 125.086 283.709 124.672C284.33 124.258 285.058 124.051 285.892 124.051C287.005 124.051 287.922 124.5 288.644 125.4V124.264H290.117V132.412C290.117 133.88 289.967 134.918 289.665 135.528C289.369 136.143 288.895 136.629 288.245 136.984C287.6 137.339 286.804 137.516 285.857 137.516C284.732 137.516 283.824 137.262 283.132 136.753C282.439 136.25 282.105 135.489 282.129 134.472ZM283.451 128.808C283.451 130.045 283.697 130.948 284.188 131.516C284.679 132.084 285.295 132.368 286.034 132.368C286.768 132.368 287.384 132.087 287.881 131.525C288.378 130.956 288.626 130.069 288.626 128.862C288.626 127.708 288.369 126.838 287.854 126.252C287.345 125.666 286.73 125.373 286.008 125.373C285.298 125.373 284.694 125.663 284.197 126.243C283.7 126.817 283.451 127.672 283.451 128.808ZM298.692 132.528C298.1 133.031 297.529 133.386 296.979 133.593C296.435 133.8 295.849 133.903 295.221 133.903C294.186 133.903 293.39 133.652 292.834 133.149C292.277 132.64 291.999 131.992 291.999 131.205C291.999 130.743 292.103 130.323 292.31 129.945C292.523 129.56 292.798 129.252 293.135 129.021C293.479 128.791 293.863 128.616 294.289 128.498C294.603 128.415 295.076 128.335 295.71 128.258C297 128.104 297.949 127.921 298.559 127.708C298.565 127.489 298.568 127.35 298.568 127.291C298.568 126.64 298.417 126.181 298.115 125.915C297.707 125.554 297.1 125.373 296.295 125.373C295.544 125.373 294.988 125.506 294.627 125.773C294.272 126.033 294.008 126.498 293.837 127.166L292.274 126.953C292.416 126.285 292.65 125.746 292.976 125.338C293.301 124.923 293.772 124.607 294.387 124.388C295.002 124.163 295.716 124.051 296.526 124.051C297.331 124.051 297.985 124.145 298.488 124.335C298.991 124.524 299.361 124.764 299.597 125.054C299.834 125.338 300 125.699 300.095 126.137C300.148 126.409 300.174 126.9 300.174 127.61V129.74C300.174 131.226 300.207 132.167 300.272 132.563C300.343 132.954 300.479 133.329 300.68 133.69H299.012C298.846 133.359 298.739 132.971 298.692 132.528ZM298.559 128.959C297.979 129.196 297.109 129.397 295.949 129.563C295.292 129.658 294.828 129.764 294.556 129.882C294.283 130.001 294.073 130.175 293.925 130.406C293.778 130.631 293.704 130.883 293.704 131.161C293.704 131.587 293.863 131.942 294.183 132.226C294.508 132.51 294.982 132.652 295.603 132.652C296.219 132.652 296.766 132.519 297.245 132.252C297.725 131.98 298.077 131.61 298.302 131.143C298.473 130.782 298.559 130.249 298.559 129.545V128.959ZM302.66 133.69V124.264H304.098V125.604C304.79 124.568 305.79 124.051 307.098 124.051C307.666 124.051 308.187 124.154 308.66 124.361C309.14 124.562 309.498 124.829 309.734 125.16C309.971 125.492 310.137 125.885 310.231 126.341C310.291 126.637 310.32 127.154 310.32 127.894V133.69H308.722V127.956C308.722 127.305 308.66 126.82 308.536 126.501C308.412 126.175 308.19 125.918 307.87 125.728C307.557 125.533 307.187 125.435 306.761 125.435C306.08 125.435 305.491 125.651 304.994 126.083C304.503 126.515 304.258 127.335 304.258 128.542V133.69H302.66ZM312.184 128.977C312.184 127.231 312.67 125.938 313.64 125.098C314.451 124.4 315.439 124.051 316.605 124.051C317.901 124.051 318.96 124.477 319.783 125.329C320.605 126.175 321.016 127.347 321.016 128.844C321.016 130.057 320.833 131.013 320.466 131.711C320.105 132.403 319.575 132.942 318.877 133.326C318.185 133.711 317.427 133.903 316.605 133.903C315.285 133.903 314.217 133.48 313.4 132.634C312.59 131.788 312.184 130.569 312.184 128.977ZM313.826 128.977C313.826 130.184 314.09 131.09 314.616 131.693C315.143 132.291 315.806 132.59 316.605 132.59C317.398 132.59 318.058 132.288 318.584 131.684C319.111 131.081 319.374 130.161 319.374 128.924C319.374 127.758 319.108 126.876 318.575 126.279C318.049 125.675 317.392 125.373 316.605 125.373C315.806 125.373 315.143 125.672 314.616 126.27C314.09 126.867 313.826 127.77 313.826 128.977ZM322.898 133.69V124.264H324.327V125.586C324.623 125.125 325.017 124.755 325.508 124.477C325.999 124.193 326.558 124.051 327.185 124.051C327.884 124.051 328.455 124.196 328.899 124.486C329.348 124.776 329.665 125.181 329.848 125.702C330.594 124.601 331.565 124.051 332.76 124.051C333.695 124.051 334.414 124.311 334.917 124.832C335.42 125.347 335.671 126.142 335.671 127.22V133.69H334.082V127.752C334.082 127.113 334.029 126.654 333.923 126.376C333.822 126.092 333.636 125.864 333.363 125.693C333.091 125.521 332.772 125.435 332.405 125.435C331.742 125.435 331.192 125.657 330.754 126.101C330.316 126.539 330.097 127.243 330.097 128.214V133.69H328.499V127.566C328.499 126.856 328.369 126.323 328.109 125.968C327.848 125.613 327.422 125.435 326.83 125.435C326.381 125.435 325.963 125.554 325.579 125.79C325.2 126.027 324.925 126.373 324.753 126.829C324.582 127.285 324.496 127.941 324.496 128.8V133.69H322.898ZM344.495 130.655L346.146 130.859C345.885 131.823 345.403 132.572 344.699 133.105C343.995 133.637 343.095 133.903 342 133.903C340.621 133.903 339.527 133.48 338.716 132.634C337.911 131.782 337.509 130.59 337.509 129.057C337.509 127.471 337.917 126.24 338.734 125.364C339.55 124.489 340.61 124.051 341.911 124.051C343.172 124.051 344.202 124.48 345 125.338C345.799 126.196 346.199 127.403 346.199 128.959C346.199 129.054 346.196 129.196 346.19 129.385H339.16C339.219 130.421 339.512 131.214 340.039 131.764C340.565 132.315 341.222 132.59 342.009 132.59C342.595 132.59 343.095 132.436 343.509 132.128C343.923 131.82 344.252 131.329 344.495 130.655ZM339.249 128.072H344.512C344.441 127.279 344.24 126.684 343.909 126.287C343.4 125.672 342.74 125.364 341.929 125.364C341.195 125.364 340.577 125.61 340.074 126.101C339.577 126.592 339.302 127.249 339.249 128.072ZM351.649 132.261L351.88 133.673C351.43 133.767 351.028 133.815 350.673 133.815C350.093 133.815 349.643 133.723 349.323 133.54C349.004 133.356 348.779 133.116 348.649 132.821C348.519 132.519 348.453 131.889 348.453 130.93V125.506H347.282V124.264H348.453V121.929L350.042 120.97V124.264H351.649V125.506H350.042V131.019C350.042 131.474 350.069 131.767 350.122 131.897C350.181 132.028 350.273 132.131 350.397 132.208C350.528 132.285 350.711 132.323 350.948 132.323C351.125 132.323 351.359 132.303 351.649 132.261ZM359.371 132.528C358.78 133.031 358.209 133.386 357.658 133.593C357.114 133.8 356.528 133.903 355.901 133.903C354.865 133.903 354.069 133.652 353.513 133.149C352.957 132.64 352.679 131.992 352.679 131.205C352.679 130.743 352.782 130.323 352.989 129.945C353.202 129.56 353.477 129.252 353.815 129.021C354.158 128.791 354.543 128.616 354.969 128.498C355.282 128.415 355.756 128.335 356.389 128.258C357.679 128.104 358.629 127.921 359.238 127.708C359.244 127.489 359.247 127.35 359.247 127.291C359.247 126.64 359.096 126.181 358.794 125.915C358.386 125.554 357.78 125.373 356.975 125.373C356.223 125.373 355.667 125.506 355.306 125.773C354.951 126.033 354.688 126.498 354.516 127.166L352.954 126.953C353.096 126.285 353.33 125.746 353.655 125.338C353.98 124.923 354.451 124.607 355.066 124.388C355.682 124.163 356.395 124.051 357.206 124.051C358.01 124.051 358.664 124.145 359.167 124.335C359.67 124.524 360.04 124.764 360.277 125.054C360.514 125.338 360.679 125.699 360.774 126.137C360.827 126.409 360.854 126.9 360.854 127.61V129.74C360.854 131.226 360.886 132.167 360.951 132.563C361.022 132.954 361.159 133.329 361.36 133.69H359.691C359.525 133.359 359.419 132.971 359.371 132.528ZM359.238 128.959C358.658 129.196 357.788 129.397 356.629 129.563C355.972 129.658 355.507 129.764 355.235 129.882C354.963 130.001 354.753 130.175 354.605 130.406C354.457 130.631 354.383 130.883 354.383 131.161C354.383 131.587 354.543 131.942 354.862 132.226C355.188 132.51 355.661 132.652 356.282 132.652C356.898 132.652 357.445 132.519 357.925 132.252C358.404 131.98 358.756 131.61 358.981 131.143C359.153 130.782 359.238 130.249 359.238 129.545V128.959ZM363.304 133.69V120.678H364.901V133.69H363.304ZM367.351 133.69V120.678H368.949V133.69H367.351ZM371.443 122.515V120.678H373.041V122.515H371.443ZM371.443 133.69V124.264H373.041V133.69H371.443ZM381.634 130.237L383.205 130.442C383.033 131.525 382.592 132.374 381.882 132.989C381.178 133.599 380.311 133.903 379.281 133.903C377.991 133.903 376.953 133.483 376.166 132.643C375.385 131.797 374.994 130.587 374.994 129.013C374.994 127.995 375.163 127.104 375.5 126.341C375.837 125.577 376.349 125.006 377.036 124.628C377.728 124.243 378.479 124.051 379.29 124.051C380.314 124.051 381.151 124.311 381.802 124.832C382.453 125.347 382.87 126.08 383.054 127.033L381.5 127.273C381.352 126.64 381.089 126.163 380.71 125.844C380.338 125.524 379.885 125.364 379.352 125.364C378.548 125.364 377.894 125.654 377.391 126.234C376.888 126.808 376.636 127.72 376.636 128.968C376.636 130.235 376.879 131.155 377.364 131.729C377.849 132.303 378.482 132.59 379.264 132.59C379.891 132.59 380.415 132.397 380.835 132.013C381.255 131.628 381.521 131.036 381.634 130.237ZM399.12 129.128L400.842 129.563C400.481 130.977 399.83 132.057 398.889 132.803C397.954 133.542 396.809 133.912 395.454 133.912C394.052 133.912 392.91 133.628 392.028 133.06C391.152 132.486 390.483 131.658 390.022 130.575C389.566 129.492 389.338 128.329 389.338 127.086C389.338 125.731 389.596 124.551 390.111 123.545C390.631 122.533 391.368 121.766 392.321 121.246C393.279 120.719 394.333 120.456 395.481 120.456C396.783 120.456 397.877 120.787 398.765 121.45C399.653 122.113 400.271 123.045 400.62 124.246L398.925 124.645C398.623 123.699 398.185 123.009 397.611 122.577C397.037 122.145 396.315 121.929 395.445 121.929C394.445 121.929 393.608 122.169 392.933 122.648C392.265 123.127 391.794 123.772 391.522 124.583C391.25 125.388 391.114 126.219 391.114 127.077C391.114 128.184 391.273 129.152 391.593 129.98C391.918 130.803 392.421 131.418 393.102 131.826C393.782 132.235 394.519 132.439 395.312 132.439C396.277 132.439 397.093 132.161 397.762 131.604C398.431 131.048 398.883 130.223 399.12 129.128ZM402.768 133.69V120.678H404.366V125.347C405.112 124.483 406.053 124.051 407.189 124.051C407.887 124.051 408.494 124.19 409.009 124.468C409.523 124.74 409.89 125.119 410.109 125.604C410.334 126.089 410.447 126.793 410.447 127.717V133.69H408.849V127.717C408.849 126.918 408.674 126.338 408.325 125.977C407.982 125.61 407.494 125.426 406.86 125.426C406.387 125.426 405.94 125.551 405.52 125.799C405.106 126.042 404.81 126.373 404.632 126.793C404.455 127.214 404.366 127.794 404.366 128.533V133.69H402.768ZM419.341 130.655L420.992 130.859C420.731 131.823 420.249 132.572 419.545 133.105C418.841 133.637 417.941 133.903 416.846 133.903C415.468 133.903 414.373 133.48 413.562 132.634C412.757 131.782 412.355 130.59 412.355 129.057C412.355 127.471 412.763 126.24 413.58 125.364C414.397 124.489 415.456 124.051 416.758 124.051C418.018 124.051 419.048 124.48 419.847 125.338C420.646 126.196 421.045 127.403 421.045 128.959C421.045 129.054 421.042 129.196 421.036 129.385H414.006C414.065 130.421 414.358 131.214 414.885 131.764C415.411 132.315 416.068 132.59 416.855 132.59C417.441 132.59 417.941 132.436 418.355 132.128C418.77 131.82 419.098 131.329 419.341 130.655ZM414.095 128.072H419.358C419.287 127.279 419.086 126.684 418.755 126.287C418.246 125.672 417.586 125.364 416.775 125.364C416.042 125.364 415.423 125.61 414.92 126.101C414.423 126.592 414.148 127.249 414.095 128.072ZM423.007 133.69V124.264H424.436V125.586C424.732 125.125 425.125 124.755 425.616 124.477C426.108 124.193 426.667 124.051 427.294 124.051C427.992 124.051 428.563 124.196 429.007 124.486C429.457 124.776 429.773 125.181 429.957 125.702C430.703 124.601 431.673 124.051 432.868 124.051C433.803 124.051 434.522 124.311 435.025 124.832C435.528 125.347 435.78 126.142 435.78 127.22V133.69H434.191V127.752C434.191 127.113 434.138 126.654 434.031 126.376C433.931 126.092 433.744 125.864 433.472 125.693C433.2 125.521 432.88 125.435 432.513 125.435C431.851 125.435 431.3 125.657 430.862 126.101C430.424 126.539 430.205 127.243 430.205 128.214V133.69H428.608V127.566C428.608 126.856 428.478 126.323 428.217 125.968C427.957 125.613 427.531 125.435 426.939 125.435C426.489 125.435 426.072 125.554 425.687 125.79C425.309 126.027 425.033 126.373 424.862 126.829C424.69 127.285 424.604 127.941 424.604 128.8V133.69H423.007ZM438.159 122.515V120.678H439.756V122.515H438.159ZM438.159 133.69V124.264H439.756V133.69H438.159ZM441.558 130.877L443.138 130.628C443.227 131.261 443.473 131.746 443.875 132.084C444.283 132.421 444.852 132.59 445.579 132.59C446.313 132.59 446.858 132.442 447.213 132.146C447.568 131.844 447.745 131.492 447.745 131.09C447.745 130.729 447.588 130.445 447.275 130.237C447.056 130.095 446.511 129.915 445.642 129.696C444.47 129.4 443.656 129.146 443.201 128.933C442.751 128.714 442.408 128.415 442.171 128.036C441.94 127.651 441.825 127.228 441.825 126.767C441.825 126.347 441.919 125.959 442.109 125.604C442.304 125.243 442.567 124.944 442.899 124.707C443.147 124.524 443.485 124.37 443.911 124.246C444.343 124.116 444.804 124.051 445.295 124.051C446.035 124.051 446.683 124.157 447.239 124.37C447.802 124.583 448.216 124.873 448.482 125.24C448.748 125.601 448.932 126.086 449.032 126.696L447.47 126.909C447.399 126.424 447.192 126.045 446.849 125.773C446.511 125.5 446.032 125.364 445.411 125.364C444.677 125.364 444.153 125.486 443.84 125.728C443.526 125.971 443.369 126.255 443.369 126.58C443.369 126.788 443.434 126.974 443.564 127.14C443.695 127.311 443.899 127.453 444.177 127.566C444.337 127.625 444.807 127.761 445.588 127.974C446.719 128.276 447.506 128.524 447.949 128.72C448.399 128.909 448.751 129.187 449.006 129.554C449.26 129.921 449.387 130.377 449.387 130.921C449.387 131.454 449.231 131.957 448.917 132.43C448.609 132.897 448.162 133.261 447.577 133.522C446.991 133.776 446.328 133.903 445.588 133.903C444.363 133.903 443.428 133.649 442.783 133.14C442.144 132.631 441.736 131.877 441.558 130.877ZM454.775 132.261L455.006 133.673C454.556 133.767 454.154 133.815 453.799 133.815C453.219 133.815 452.769 133.723 452.45 133.54C452.13 133.356 451.905 133.116 451.775 132.821C451.645 132.519 451.58 131.889 451.58 130.93V125.506H450.408V124.264H451.58V121.929L453.169 120.97V124.264H454.775V125.506H453.169V131.019C453.169 131.474 453.195 131.767 453.249 131.897C453.308 132.028 453.4 132.131 453.524 132.208C453.654 132.285 453.838 132.323 454.074 132.323C454.252 132.323 454.485 132.303 454.775 132.261ZM456.329 133.69V124.264H457.767V125.693C458.134 125.024 458.471 124.583 458.779 124.37C459.092 124.157 459.436 124.051 459.808 124.051C460.347 124.051 460.894 124.222 461.451 124.565L460.9 126.048C460.51 125.817 460.119 125.702 459.728 125.702C459.379 125.702 459.066 125.808 458.788 126.021C458.509 126.228 458.311 126.518 458.193 126.891C458.015 127.459 457.927 128.081 457.927 128.755V133.69H456.329ZM462.329 137.321L462.152 135.821C462.501 135.915 462.806 135.963 463.066 135.963C463.421 135.963 463.705 135.904 463.918 135.785C464.131 135.667 464.306 135.501 464.442 135.288C464.542 135.128 464.705 134.732 464.93 134.099C464.96 134.01 465.007 133.88 465.072 133.708L461.495 124.264H463.217L465.179 129.723C465.433 130.415 465.661 131.143 465.862 131.906C466.046 131.172 466.265 130.456 466.519 129.758L468.534 124.264H470.132L466.546 133.85C466.161 134.886 465.862 135.599 465.649 135.989C465.365 136.516 465.04 136.901 464.673 137.143C464.306 137.392 463.868 137.516 463.359 137.516C463.051 137.516 462.708 137.451 462.329 137.321Z" fill="white"/>
<path d="M0.763374 129.864L2.36113 129.651C2.54458 130.556 2.85526 131.21 3.29316 131.613C3.73698 132.009 4.27549 132.208 4.90867 132.208C5.66021 132.208 6.2934 131.947 6.80823 131.426C7.32898 130.906 7.58936 130.261 7.58936 129.491C7.58936 128.758 7.34969 128.154 6.87037 127.681C6.39104 127.201 5.78152 126.962 5.04182 126.962C4.74002 126.962 4.36425 127.021 3.91451 127.139L4.09204 125.737C4.19856 125.748 4.28436 125.754 4.34946 125.754C5.02998 125.754 5.64246 125.577 6.18688 125.222C6.7313 124.867 7.00351 124.319 7.00351 123.58C7.00351 122.994 6.80527 122.509 6.40879 122.124C6.01231 121.739 5.50043 121.547 4.87317 121.547C4.25182 121.547 3.73402 121.742 3.31979 122.133C2.90556 122.523 2.63926 123.109 2.52091 123.89L0.92315 123.606C1.11843 122.535 1.56225 121.707 2.25462 121.121C2.94698 120.529 3.80799 120.233 4.83766 120.233C5.54778 120.233 6.20167 120.387 6.79935 120.695C7.39703 120.997 7.85269 121.411 8.16633 121.937C8.48588 122.464 8.64565 123.023 8.64565 123.615C8.64565 124.177 8.49475 124.689 8.19296 125.151C7.89116 125.612 7.44438 125.979 6.85261 126.251C7.6219 126.429 8.21958 126.799 8.64565 127.361C9.07172 127.917 9.28476 128.616 9.28476 129.456C9.28476 130.592 8.87052 131.557 8.04206 132.35C7.21359 133.137 6.16617 133.53 4.8998 133.53C3.75769 133.53 2.80791 133.19 2.05046 132.509C1.29892 131.829 0.869891 130.947 0.763374 129.864ZM10.8736 126.882C10.8736 125.343 11.0305 124.106 11.3441 123.171C11.6636 122.23 12.1341 121.505 12.7554 120.997C13.3827 120.488 14.1698 120.233 15.1166 120.233C15.8149 120.233 16.4273 120.375 16.954 120.659C17.4807 120.937 17.9156 121.343 18.2588 121.875C18.6021 122.402 18.8713 123.047 19.0666 123.81C19.2619 124.568 19.3595 125.592 19.3595 126.882C19.3595 128.408 19.2027 129.642 18.8891 130.583C18.5754 131.518 18.105 132.243 17.4777 132.758C16.8564 133.267 16.0693 133.521 15.1166 133.521C13.862 133.521 12.8768 133.071 12.1607 132.172C11.3027 131.089 10.8736 129.326 10.8736 126.882ZM12.5158 126.882C12.5158 129.018 12.7643 130.441 13.2614 131.151C13.7644 131.855 14.3828 132.208 15.1166 132.208C15.8504 132.208 16.4658 131.852 16.9629 131.142C17.4659 130.432 17.7174 129.012 17.7174 126.882C17.7174 124.739 17.4659 123.316 16.9629 122.612C16.4658 121.908 15.8444 121.556 15.0988 121.556C14.365 121.556 13.7792 121.866 13.3413 122.488C12.791 123.281 12.5158 124.745 12.5158 126.882Z" fill="white"/>
<path d="M23.036 119.662L23.1514 120.368C22.9265 120.415 22.7253 120.439 22.5478 120.439C22.2578 120.439 22.033 120.393 21.8732 120.301C21.7134 120.21 21.601 120.09 21.5359 119.942C21.4708 119.791 21.4382 119.476 21.4382 118.996V116.285H20.8524V115.663H21.4382V114.496L22.2327 114.017V115.663H23.036V116.285H22.2327V119.041C22.2327 119.269 22.246 119.415 22.2726 119.48C22.3022 119.545 22.3481 119.597 22.4102 119.636C22.4753 119.674 22.567 119.693 22.6854 119.693C22.7742 119.693 22.891 119.683 23.036 119.662ZM23.8216 120.377V113.87H24.6205V116.205C24.9933 115.773 25.4637 115.557 26.0318 115.557C26.3809 115.557 26.6842 115.626 26.9416 115.765C27.1991 115.902 27.3825 116.091 27.492 116.333C27.6044 116.576 27.6606 116.928 27.6606 117.39V120.377H26.8618V117.39C26.8618 116.99 26.7745 116.7 26.5999 116.52C26.4283 116.336 26.1842 116.245 25.8676 116.245C25.6309 116.245 25.4075 116.307 25.1974 116.431C24.9903 116.552 24.8424 116.718 24.7536 116.928C24.6648 117.138 24.6205 117.428 24.6205 117.798V120.377H23.8216Z" fill="white"/>
<path d="M26.8319 99.2811C26.8319 101.649 25.9466 103.683 24.1854 105.338C22.4256 106.995 20.2509 107.827 17.6724 107.827C15.0939 107.827 12.9056 106.998 11.1091 105.338C9.31119 103.68 8.41223 101.66 8.41223 99.2811V59.982C8.41223 57.6023 9.31391 55.5967 11.1091 53.9713C12.9043 52.3471 15.0952 51.5301 17.6724 51.5301C20.2509 51.5301 22.4242 52.3471 24.1854 53.9713C25.9466 55.5967 26.8319 57.6086 26.8319 59.982V99.2811ZM17.6724 31.3352C20.2509 31.3352 22.4215 32.1485 24.1854 33.7777C25.9493 35.4056 26.8319 37.4087 26.8319 39.7884C26.8319 42.1681 25.9493 44.1876 24.1854 45.8469C22.4215 47.5062 20.2509 48.3358 17.6724 48.3358C15.0939 48.3358 12.9056 47.5062 11.1091 45.8469C9.31119 44.1876 8.41223 42.1681 8.41223 39.7884C8.41223 37.4087 9.31119 35.4056 11.1091 33.7777C12.907 32.1498 15.0952 31.3352 17.6724 31.3352Z" fill="white"/>
<path d="M88.0289 67.9369H80.7773C80.3484 65.8511 79.5979 64.0186 78.5257 62.4397C77.4731 60.8607 76.1865 59.5351 74.666 58.4629C73.165 57.3713 71.4982 56.5525 69.6658 56.0067C67.8334 55.4609 65.923 55.188 63.9347 55.188C60.3088 55.188 57.0241 56.1042 54.0806 57.9366C51.1565 59.769 48.827 62.4689 47.0921 66.0363C45.3766 69.6036 44.5189 73.9799 44.5189 79.1653C44.5189 84.3506 45.3766 88.727 47.0921 92.2943C48.827 95.8617 51.1565 98.5616 54.0806 100.394C57.0241 102.226 60.3088 103.143 63.9347 103.143C65.923 103.143 67.8334 102.87 69.6658 102.324C71.4982 101.778 73.165 100.969 74.666 99.8969C76.1865 98.8052 77.4731 97.4699 78.5257 95.8909C79.5979 94.2924 80.3484 92.46 80.7773 90.3937H88.0289C87.4831 93.4542 86.4889 96.1931 85.0464 98.6103C83.6039 101.028 81.8104 103.084 79.6661 104.78C77.5218 106.457 75.1143 107.733 72.4437 108.611C69.7925 109.488 66.9562 109.926 63.9347 109.926C58.8273 109.926 54.2853 108.679 50.3086 106.184C46.3318 103.688 43.2031 100.141 40.9223 95.54C38.6416 90.9395 37.5012 85.4813 37.5012 79.1653C37.5012 72.8493 38.6416 67.3911 40.9223 62.7905C43.2031 58.19 46.3318 54.6422 50.3086 52.147C54.2853 49.6518 58.8273 48.4042 63.9347 48.4042C66.9562 48.4042 69.7925 48.8428 72.4437 49.72C75.1143 50.5972 77.5218 51.8838 79.6661 53.5797C81.8104 55.2562 83.6039 57.3031 85.0464 59.7203C86.4889 62.118 87.4831 64.8569 88.0289 67.9369Z" fill="white"/>
<path d="M158.063 79.1653C158.063 85.4813 156.923 90.9395 154.642 95.54C152.361 100.141 149.233 103.688 145.256 106.184C141.279 108.679 136.737 109.926 131.63 109.926C126.523 109.926 121.98 108.679 118.004 106.184C114.027 103.688 110.898 100.141 108.618 95.54C106.337 90.9395 105.196 85.4813 105.196 79.1653C105.196 72.8493 106.337 67.3911 108.618 62.7905C110.898 58.19 114.027 54.6422 118.004 52.147C121.98 49.6518 126.523 48.4042 131.63 48.4042C136.737 48.4042 141.279 49.6518 145.256 52.147C149.233 54.6422 152.361 58.19 154.642 62.7905C156.923 67.3911 158.063 72.8493 158.063 79.1653ZM151.046 79.1653C151.046 73.9799 150.178 69.6036 148.443 66.0363C146.728 62.4689 144.398 59.769 141.455 57.9366C138.531 56.1042 135.256 55.188 131.63 55.188C128.004 55.188 124.719 56.1042 121.776 57.9366C118.852 59.769 116.522 62.4689 114.787 66.0363C113.072 69.6036 112.214 73.9799 112.214 79.1653C112.214 84.3506 113.072 88.727 114.787 92.2943C116.522 95.8617 118.852 98.5616 121.776 100.394C124.719 102.226 128.004 103.143 131.63 103.143C135.256 103.143 138.531 102.226 141.455 100.394C144.398 98.5616 146.728 95.8617 148.443 92.2943C150.178 88.727 151.046 84.3506 151.046 79.1653Z" fill="white"/>
<path d="M308.473 67.9369H301.221C300.792 65.8511 300.042 64.0186 298.969 62.4397C297.917 60.8607 296.63 59.5351 295.11 58.4629C293.609 57.3713 291.942 56.5525 290.109 56.0067C288.277 55.4609 286.367 55.188 284.378 55.188C280.752 55.188 277.468 56.1042 274.524 57.9366C271.6 59.769 269.271 62.4689 267.536 66.0363C265.82 69.6036 264.963 73.9799 264.963 79.1653C264.963 84.3506 265.82 88.727 267.536 92.2943C269.271 95.8617 271.6 98.5616 274.524 100.394C277.468 102.226 280.752 103.143 284.378 103.143C286.367 103.143 288.277 102.87 290.109 102.324C291.942 101.778 293.609 100.969 295.11 99.8969C296.63 98.8052 297.917 97.4699 298.969 95.8909C300.042 94.2924 300.792 92.46 301.221 90.3937H308.473C307.927 93.4542 306.933 96.1931 305.49 98.6103C304.047 101.028 302.254 103.084 300.11 104.78C297.965 106.457 295.558 107.733 292.887 108.611C290.236 109.488 287.4 109.926 284.378 109.926C279.271 109.926 274.729 108.679 270.752 106.184C266.775 103.688 263.647 100.141 261.366 95.54C259.085 90.9395 257.945 85.4813 257.945 79.1653C257.945 72.8493 259.085 67.3911 261.366 62.7905C263.647 58.19 266.775 54.6422 270.752 52.147C274.729 49.6518 279.271 48.4042 284.378 48.4042C287.4 48.4042 290.236 48.8428 292.887 49.72C295.558 50.5972 297.965 51.8838 300.11 53.5797C302.254 55.2562 304.047 57.3031 305.49 59.7203C306.933 62.118 307.927 64.8569 308.473 67.9369Z" fill="white"/>
<path d="M177.957 49.613H186.613L206.964 99.3221H207.666L228.017 49.613H236.673V109.498H229.889V63.9994H229.304L210.59 109.498H204.04L185.326 63.9994H184.741V109.498H177.957V49.613Z" fill="white"/>
<path d="M446.575 65.7375V96.3182" stroke="white" stroke-width="1.11812" stroke-miterlimit="2.61313"/>
<path fill-rule="evenodd" clip-rule="evenodd" d="M387.761 81.0269C334.473 78.225 385.471 31.6994 387.761 81.0269V81.0269Z" fill="white"/>
<path fill-rule="evenodd" clip-rule="evenodd" d="M387.761 81.0268C390.795 31.8479 441.21 78.9139 387.761 81.0268V81.0268Z" fill="white"/>
<path fill-rule="evenodd" clip-rule="evenodd" d="M387.761 81.0271C390.05 130.355 441.049 83.8275 387.761 81.0271V81.0271Z" fill="white"/>
<path fill-rule="evenodd" clip-rule="evenodd" d="M387.761 81.0271C334.312 83.14 384.725 130.206 387.761 81.0271V81.0271Z" fill="white"/>
<path fill-rule="evenodd" clip-rule="evenodd" d="M348.925 81.0268C313.39 44.2713 385.1 44.654 348.925 81.0268V81.0268Z" fill="white"/>
<path fill-rule="evenodd" clip-rule="evenodd" d="M348.925 81.0271C312.749 117.4 384.459 117.783 348.925 81.0271V81.0271Z" fill="white"/>
<path fill-rule="evenodd" clip-rule="evenodd" d="M446.577 65.7374C485.989 99.1231 486.403 32.9428 446.577 65.7374V65.7374Z" fill="white"/>
<path fill-rule="evenodd" clip-rule="evenodd" d="M446.577 65.7375C406.75 98.5322 407.165 32.3519 446.577 65.7375V65.7375Z" fill="white"/>
<path fill-rule="evenodd" clip-rule="evenodd" d="M446.577 96.318C406.75 63.5234 407.165 129.704 446.577 96.318V96.318Z" fill="white"/>
<path fill-rule="evenodd" clip-rule="evenodd" d="M446.577 96.3186C485.989 62.933 486.403 129.113 446.577 96.3186V96.3186Z" fill="white"/>
<path d="M327.219 53.7981V108.256" stroke="white" stroke-width="0.916579" stroke-miterlimit="2.61313"/>
</svg>
